<?xml version="1.0"?>
<svg xmlns="http://www.w3.org/2000/svg" height="512px" viewBox="-24 0 432 432.11806" width="512px"><g><path d="m168.058594 350.566406v9.550782c0 13.253906-10.746094 24-24 24h-40c-13.253906 0-24 10.746093-24 24v16c0 4.417968 3.582031 8 8 8h208c4.417968 0 8-3.582032 8-8v-16c0-13.253907-10.746094-24-24-24h-40c-13.253906 0-24-10.746094-24-24v-9.550782c95.929687-12.195312 167.867187-93.75 168-190.449218 0-4.417969-3.582032-8-8-8h-24.40625c-4.09375-85.167969-74.335938-152.117188-159.601563-152.117188s-155.507812 66.949219-159.601562 152.117188h-24.390625c-4.417969 0-8.0000002 3.582031-8.0000002 8 .1328122 96.699218 72.0742182 178.253906 168.0000002 190.449218zm72 49.550782h40c4.417968 0 8 3.582031 8 8v8h-192v-8c0-4.417969 3.582031-8 8-8h40c22.082031-.027344 39.972656-17.917969 40-40v-8h16v8c.027344 22.082031 17.921875 39.972656 40 40zm-48-384c79.53125 0 144 64.472656 144 144 0 79.53125-64.46875 144-144 144-79.527344 0-144-64.46875-144-144 .09375-79.488282 64.511718-143.90625 144-144zm-159.589844 152c4.089844 85.167968 74.332031 152.117187 159.597656 152.117187s155.511719-66.949219 159.601563-152.117187h16.230469c-4.207032 94.050781-81.679688 168.132812-175.824219 168.132812-94.140625 0-171.613281-74.082031-175.824219-168.132812zm0 0" data-original="#000000" class="active-path" data-old_color="#FDFAFA" fill="#FDFBFB"/><path d="m192.058594 288.117188c70.691406 0 128-57.308594 128-128 0-70.691407-57.308594-128-128-128s-128 57.308593-128 128c.085937 70.660156 57.34375 127.917968 128 128zm0-240c61.855468 0 112 50.144531 112 112 0 61.855468-50.144532 112-112 112-61.855469 0-112-50.144532-112-112 .066406-61.828126 50.171875-111.933594 112-112zm0 0" data-original="#000000" class="active-path" data-old_color="#FDFAFA" fill="#FDFBFB"/><path d="m130.402344 221.773438c3.125 3.125 8.1875 3.125 11.3125 0l72-72c3.03125-3.136719 2.988281-8.128907-.097656-11.214844-3.085938-3.085938-8.074219-3.128906-11.214844-.097656l-72 72c-3.121094 3.125-3.121094 8.1875 0 11.3125zm0 0" data-original="#000000" class="active-path" data-old_color="#FDFAFA" fill="#FDFBFB"/><path d="m232.058594 128.117188c2.121094 0 4.15625-.84375 5.65625-2.34375l16-16c3.03125-3.136719 2.988281-8.128907-.097656-11.214844-3.085938-3.085938-8.074219-3.128906-11.214844-.097656l-16 16c-2.285156 2.289062-2.96875 5.730468-1.734375 8.71875 1.238281 2.988281 4.15625 4.9375 7.390625 4.9375zm0 0" data-original="#000000" class="active-path" data-old_color="#FDFAFA" fill="#FDFBFB"/><path d="m250.402344 154.460938-56 56c-2.078125 2.007812-2.914063 4.984374-2.179688 7.78125.730469 2.796874 2.914063 4.980468 5.710938 5.714843 2.796875.730469 5.773437-.101562 7.78125-2.183593l56-56c3.03125-3.136719 2.988281-8.128907-.097656-11.214844-3.085938-3.085938-8.074219-3.128906-11.214844-.097656zm0 0" data-original="#000000" class="active-path" data-old_color="#FDFAFA" fill="#FDFBFB"/><path d="m128.058594 168.117188c2.121094 0 4.15625-.84375 5.65625-2.34375l56-56c3.03125-3.136719 2.988281-8.128907-.097656-11.214844-3.085938-3.085938-8.074219-3.128906-11.214844-.097656l-56 56c-2.285156 2.289062-2.96875 5.730468-1.734375 8.71875 1.238281 2.988281 4.15625 4.9375 7.390625 4.9375zm0 0" data-original="#000000" class="active-path" data-old_color="#FDFAFA" fill="#FDFBFB"/></g> </svg>
